<?xml version="1.0" encoding="utf-8"?>
<!-- Generator: Adobe Illustrator 27.9.0, SVG Export Plug-In . SVG Version: 6.00 Build 0)  -->
<svg version="1.1" xmlns="http://www.w3.org/2000/svg" xmlns:xlink="http://www.w3.org/1999/xlink" x="0px" y="0px"
	 viewBox="0 0 100.6 98.6" style="enable-background:new 0 0 100.6 98.6;" xml:space="preserve">
<style type="text/css">
	.st0{fill:#6B9543;}
	.st1{display:none;}
</style>
<g id="Layer_1">
	<g>
		<g>
			<path class="st0" d="M88.2,50.2l11.9-6.4c-0.4-4.4-1.3-8.8-2.9-13l-13.5-0.8c-2.1-3.9-4.9-7.4-8.2-10.4h0L78,6.5
				c-3.7-2.5-7.7-4.4-11.9-5.8l-9,10c-4.4-0.8-8.8-0.8-13.2-0.1L35,0.5c-4.2,1.4-8.3,3.3-12,5.7l2.3,13.3c-3.3,2.9-6.2,6.4-8.3,10.3
				L3.5,30.3c-1.6,4.1-2.6,8.5-3,12.9l11.8,6.5c0.2,4.4,1.2,8.8,2.9,12.9L7.2,73.6c2.3,3.8,5,7.3,8.2,10.4l12.5-5.2
				c3.6,2.6,7.6,4.6,11.9,5.8l3.6,13c4.4,0.6,8.9,0.6,13.3,0.1l3.7-12.9c4.3-1.2,8.3-3.1,12-5.7l12.4,5.3c3.2-3,6-6.5,8.3-10.3
				l-7.8-11C86.9,59,87.9,54.7,88.2,50.2z M51,79.2c-17.4,0-31.5-14.1-31.5-31.5c0-17.4,14.1-31.5,31.5-31.5
				c17.4,0,31.5,14.1,31.5,31.5C82.5,65.1,68.4,79.2,51,79.2z"/>
		</g>
	</g>
	<g id="_Radial_Repeat_">
		<path class="st0" d="M28.8,62.5c8.2,14.2,24.8,19,20.8-10.5l0,0c-0.3-2.3-1.6-4.3-3.5-5.7C21.5,29,19.8,47,28.8,62.5z"/>
	</g>
	<g id="_Radial_Repeat_-2">
		<path class="st0" d="M49.3,21C32.9,21,20.5,33,48,44.3l0,0c2.1,0.9,4.5,0.8,6.6-0.2C82,31.5,67.2,21,49.3,21L49.3,21z"/>
	</g>
	<g id="_Radial_Repeat_-3">
		<path class="st0" d="M75,59.6c8.2-14.2,4-31-19.5-12.8l0,0c-1.8,1.4-3,3.5-3.2,5.8C49.6,82.6,66.1,75.1,75,59.6L75,59.6z"/>
	</g>
</g>
<g id="Layer_2" class="st1">
</g>
</svg>
